<?xml version="1.0" encoding="utf-8"?>
<!-- Generator: Adobe Illustrator 17.1.0, SVG Export Plug-In . SVG Version: 6.00 Build 0)  -->
<!DOCTYPE svg PUBLIC "-//W3C//DTD SVG 1.1//EN" "http://www.w3.org/Graphics/SVG/1.1/DTD/svg11.dtd">
<svg version="1.1" id="Layer_1" xmlns="http://www.w3.org/2000/svg" xmlns:xlink="http://www.w3.org/1999/xlink" x="0px" y="0px"
	 viewBox="0 0 368.9 362.1" enable-background="new 0 0 368.9 362.1" xml:space="preserve">
<g>
	<g>
		<path fill="#006ADD" d="M132.4,168.2c0.3-7.9-1.9-14.2-5.1-19.3c-3.1-5.1-8.7-10.1-14.9-9.5c-3.7,0.3-5.3,1.8-6.1,3.7
			c-0.8,2-1,6.5-1,8.4v47.3c9-1.2,17.3-6.4,22.5-14.6C130.6,179.7,132.1,173.6,132.4,168.2"/>
		<path fill="#006ADD" d="M100.6,109.7c-40.1,0-72.7,32.1-72.7,71.6c0,36.7,28,66.9,64.1,71c1.8,0.1,2.8-0.1,3.7-0.8
			c0.7-0.6,1-1.6,1-2.4l0-42.7c-19.6-2-35.2-18.2-35-38c0.2-18.9,13.3-34.1,30.5-37.7c0.4-0.1,0.8-0.2,1,0c0.3,0.2,0.1,0.9,0.1,0.9
			l-1.3,6.3c0,0-0.1,0.4-0.2,0.5c-0.1,0.1-0.3,0.2-0.4,0.2c-7.5,2.3-14.3,7.4-17.6,13.5c-2.7,5.1-4.5,9-4.5,15.9
			c0,15,11.8,28.8,27.3,30.6v-47.3c0-5,0.2-10.7,3.2-14.7c2.3-3.1,6.2-5,12.5-5c9,0,19.8,6.6,25.2,20.8c1.7,4.3,2.6,9.8,2.6,15.7
			c0,19.8-15.5,35.9-34.9,38.1l0,42.7c0,1.1,0.3,1.9,1,2.5c0.8,0.6,1.5,0.9,3.6,0.7c0.8,0,2.4-0.3,3-0.4
			c34.3-5.7,60.4-35.1,60.4-70.6C173.3,141.8,140.8,109.7,100.6,109.7"/>
	</g>
	<g>
		<path fill="#FF1981" d="M300.6,168.2c0.3-7.9-1.9-14.2-5.1-19.3c-3.1-5.1-8.7-10.1-14.9-9.5c-3.7,0.3-5.3,1.8-6.1,3.7
			c-0.8,2-1,6.5-1,8.4v47.3c9-1.2,17.3-6.4,22.5-14.6C298.8,179.7,300.3,173.6,300.6,168.2"/>
		<path fill="#FF1981" d="M268.8,109.7c-40.1,0-72.7,32.1-72.7,71.6c0,36.7,28,66.9,64.1,71c1.8,0.1,2.8-0.1,3.7-0.8
			c0.7-0.6,1-1.6,1-2.4l0-42.7c-19.6-2-35.2-18.2-35-38c0.2-18.9,13.3-34.1,30.5-37.7c0.4-0.1,0.8-0.2,1,0c0.3,0.2,0.1,0.9,0.1,0.9
			l-1.3,6.3c0,0-0.1,0.4-0.2,0.5c-0.1,0.1-0.3,0.2-0.4,0.2c-7.5,2.3-14.3,7.4-17.6,13.5c-2.7,5.1-4.5,9-4.5,15.9
			c0,15,11.8,28.8,27.3,30.6v-47.3c0-5,0.2-10.7,3.2-14.7c2.3-3.1,6.2-5,12.5-5c9,0,19.8,6.6,25.2,20.8c1.7,4.3,2.6,9.8,2.6,15.7
			c0,19.8-15.5,35.9-34.9,38.1l0,42.7c0,1.1,0.3,1.9,1,2.5c0.8,0.6,1.5,0.9,3.6,0.7c0.8,0,2.4-0.3,3-0.4
			c34.3-5.7,60.4-35.1,60.4-70.6C341.5,141.8,308.9,109.7,268.8,109.7"/>
	</g>
</g>
</svg>
